<svg width="100" height="100" viewBox="0 0 100 100" fill="none" xmlns="http://www.w3.org/2000/svg">
<path d="M31.25 75V14.2229L28.727 12.5333C18 16.8396 10.4166 27.3167 10.4166 39.5833V60.4167C10.4166 76.525 23.475 89.5833 39.5833 89.5833H60.4166C70.2541 89.5833 78.9229 84.6917 84.202 77.2271V75H31.25Z" fill="#2962FF"/>
<path d="M60.4166 10.4167H39.5833C35.7395 10.4167 32.0812 11.1792 28.7208 12.5292C21.777 19.2708 16.6666 30.2667 16.6666 39.5833C16.6666 53.6896 18.6166 61.9479 24.4 70.0146C24.85 70.6417 25.1437 71.375 25.1833 72.1438C25.2729 73.8833 24.9145 77.0708 21.7791 79.9396C21.4416 80.2479 21.6562 80.8125 22.1125 80.8312C24.075 80.9167 28.0354 80.8021 32.1062 79.0042C33.2666 78.4917 34.5875 78.5813 35.7083 79.1771C42.6104 82.8417 50.6937 83.3333 58.3333 83.3333C68.075 83.3333 77.7895 81.1667 84.202 77.2583C87.5791 72.4979 89.5833 66.6958 89.5833 60.4167V39.5833C89.5833 23.475 76.525 10.4167 60.4166 10.4167Z" fill="#EEEEEE"/>
<path d="M51 41H49C48.448 41 48 40.9253 48 40.8333V38H51V41Z" fill="#2962FF"/>
<path d="M51 56H49C48.448 56 48 55.6764 48 55.2778V43H51V56Z" fill="#2962FF"/>
<path d="M34.2333 55.7602L36.5011 55.9973C36.5011 55.9973 37.2237 55.7931 37.5031 55.2315L44.4012 38.0614L41.1537 38.0257L34.2333 55.7602Z" fill="#2962FF"/>
<path d="M72.5 56C68.9172 56 66 53.0828 66 49.5C66 45.9172 68.9172 43 72.5 43C76.0828 43 79 45.9172 79 49.5C79 53.0828 76.0828 56 72.5 56ZM72.5 45.6C70.3507 45.6 68.6 47.3507 68.6 49.5C68.6 51.6493 70.3507 53.4 72.5 53.4C74.6493 53.4 76.4 51.6493 76.4 49.5C76.4 47.3507 74.6493 45.6 72.5 45.6Z" fill="#2962FF"/>
<path d="M60 56H58C57.448 56 57 55.552 57 55V38H60V56Z" fill="#2962FF"/>
<path d="M36.5 56L34.1259 56.0452C33.6274 56.0489 33.1371 55.8077 32.9268 55.2856L25.9572 38.0739L29.3489 38.0399L36.5 56Z" fill="#2962FF"/>
</svg>
